<svg width="580" height="400" xmlns="http://www.w3.org/2000/svg">
 <!-- Created with Method Draw - http://github.com/duopixel/Method-Draw/ -->

 <g>
  <title>background</title>
  <rect fill="#fff" id="canvas_background" height="402" width="582" y="-1" x="-1"/>
  <g display="none" overflow="visible" y="0" x="0" height="100%" width="100%" id="canvasGrid">
   <rect fill="url(#gridpattern)" stroke-width="0" y="0" x="0" height="100%" width="100%"/>
  </g>
 </g>
 <g>
  <title>Layer 1</title>
  <g stroke="null" id="svg_60">
   <ellipse stroke="null" transform="matrix(0.42814299657211385,0,0,0.42814299657211385,-7336.190092333783,-5135.904161982702) " id="svg_5" fill="#f2f2f2" ry="34.9216" rx="527.5" cy="12710.457445" cx="17795.949617"/>
   <path stroke="null" id="svg_6" fill="#2f2e41" d="m265.708371,148.168573c-35.336736,0 -60.708137,22.67109 -60.708137,75.570289c0,59.952426 25.371393,75.82219 60.708137,75.82219s62.21956,-17.381167 62.21956,-75.82219c-0.000021,-62.471437 -26.882824,-75.570289 -62.21956,-75.570289zm0.232285,131.492306c-24.475044,0 -37.261724,-14.35888 -37.261724,-55.883302c0,-36.639199 13.310098,-55.960727 37.785163,-55.960727s37.785163,12.69157 37.785163,55.960727c-0.000037,40.477585 -13.833558,55.883302 -38.308602,55.883302z"/>
   <path stroke="null" id="svg_7" fill="#3051d3" d="m183.840567,257.745492l-14.610275,0l0,-43.023494a8.616201,8.616201 0 0 0 -8.616192,-8.616192l-3.423472,0a8.616201,8.616201 0 0 0 -8.616205,8.616201l0,43.023485l-41.210567,0a4.918814,4.918814 0 0 1 -4.349095,-7.216675l43.616805,-82.55278a8.616201,8.616201 0 0 0 -3.939066,-11.816264l-2.574809,-1.215881a8.616201,8.616201 0 0 0 -11.277822,3.729239l-53.196443,99.514025a11.683423,11.683423 0 0 0 -1.379786,5.507944l0,0a11.683443,11.683443 0 0 0 11.683448,11.683443l62.627336,0l0,27.205313a10.32792,10.32792 0 0 0 10.32792,10.32792l0.000021,0a10.32792,10.32792 0 0 0 10.32792,-10.32792l0,-27.205297l14.610263,0a8.816526,8.816526 0 0 0 8.816526,-8.816526l0,0a8.816526,8.816526 0 0 0 -8.816505,-8.816542z"/>
   <path stroke="#3f3d56" id="svg_9" stroke-miterlimit="10" fill="none" d="m187.870985,252.707466l-14.610267,0l0,-43.023485a8.616201,8.616201 0 0 0 -8.616201,-8.616205l-3.423472,0a8.616205,8.616205 0 0 0 -8.616205,8.616205l0,43.023485l-41.210567,0a4.918814,4.918814 0 0 1 -4.349095,-7.216675l43.616801,-82.552755a8.616205,8.616205 0 0 0 -3.939062,-11.816289l-2.574809,-1.215881a8.616205,8.616205 0 0 0 -11.277826,3.729218l-53.196439,99.51405a11.683439,11.683439 0 0 0 -1.379786,5.507948l0,0a11.683443,11.683443 0 0 0 11.683443,11.683443l62.62734,0l0,27.205313a10.32792,10.32792 0 0 0 10.32792,10.32792l0.000021,0a10.32792,10.32792 0 0 0 10.32792,-10.32792l0,-27.205297l14.610267,0a8.816526,8.816526 0 0 0 8.816526,-8.816526l0,0a8.816526,8.816526 0 0 0 -8.816509,-8.81655z"/>
   <path stroke="#3f3d56" id="svg_11" stroke-miterlimit="10" fill="none" d="m273.769202,143.634357c-35.336736,0 -60.708137,22.671086 -60.708137,75.570289c0,59.952426 25.371393,75.82219 60.708137,75.82219s62.21956,-17.381167 62.21956,-75.82219c-0.000021,-62.471441 -26.882824,-75.570289 -62.21956,-75.570289zm0.232305,131.492302c-24.475044,0 -37.261724,-14.358876 -37.261724,-55.883298c0,-36.639199 13.310098,-55.960727 37.785163,-55.960727s37.785163,12.69157 37.785163,55.960727c-0.000058,40.477581 -13.833578,55.883298 -38.308623,55.883298l0.000021,0z"/>
   <circle stroke="null" transform="matrix(0.41115967625683425,0,0,0.41115967625683425,-7041.686423140708,-4920.196779788415) " id="svg_12" fill="#2f2e41" r="12.901179" cy="12178.240763" cx="17723.359977"/>
   <ellipse stroke="null" transform="matrix(0.41115967625683425,0,0,0.41115967625683425,-7041.686423140708,-4920.196779788415) " id="svg_13" fill="#2f2e41" ry="46.88476" rx="36.18622" cy="12206.875083" cx="17754.826257"/>
   <path stroke="null" id="svg_14" opacity="0.1" d="m258.382192,112.233196c-7.453338,0 -13.626366,-7.100941 -14.70955,-16.366145a25.070831,25.070831 0 0 0 -0.168765,2.910974c0,10.646458 6.661255,19.277123 14.878315,19.277123s14.878319,-8.630653 14.878319,-19.277123a25.070831,25.070831 0 0 0 -0.168765,-2.910974c-1.083184,9.265204 -7.256199,16.366145 -14.709554,16.366145z"/>
   <path stroke="null" id="svg_15" fill="#3f3d56" d="m288.657865,155.231893c-0.319516,1.313018 -1.697234,2.364579 -3.223003,3.099285c-3.207818,1.544653 -7.164581,2.005588 -11.00251,2.160307a18.57464,18.57464 0 0 1 -2.93753,-0.054273a8.444027,8.444027 0 0 1 -5.03692,-2.315409a0.691102,0.691102 0 0 1 0.017972,-1.169289c2.043217,-2.244471 5.452882,-3.620693 8.887681,-4.611604c2.60445,-0.751366 7.14649,-2.697573 9.987122,-2.434929c2.751402,0.254413 3.710622,3.668058 3.307188,5.325912z"/>
   <path stroke="null" id="svg_16" opacity="0.1" d="m288.657865,155.231893c-0.319516,1.313018 -1.697234,2.364579 -3.223003,3.099285c-3.207818,1.544653 -7.164581,2.005588 -11.00251,2.160307a18.57464,18.57464 0 0 1 -2.93753,-0.054273a8.444027,8.444027 0 0 1 -5.03692,-2.315409a0.691102,0.691102 0 0 1 0.017972,-1.169289c2.043217,-2.244471 5.452882,-3.620693 8.887681,-4.611604c2.60445,-0.751366 7.14649,-2.697573 9.987122,-2.434929c2.751402,0.254413 3.710622,3.668058 3.307188,5.325912z"/>
   <path stroke="null" id="svg_17" fill="#3f3d56" d="m247.871512,145.418597a8.128491,8.128491 0 0 0 -0.492857,6.198133a10.829592,10.829592 0 0 0 3.630215,5.138193c4.150521,3.326952 9.862833,3.784774 15.181976,3.738584a117.036396,117.036396 0 0 0 13.940472,-0.955469a16.667542,16.667542 0 0 0 4.523344,-1.050275c1.736089,-0.751102 3.261656,-2.128804 3.879703,-3.916584s0.179368,-3.976926 -1.288505,-5.170037c-1.28975,-1.04833 -3.068341,-1.192528 -4.727411,-1.29223l-9.492707,-0.570463c0.937855,-0.949117 2.186613,-1.485931 3.328691,-2.175923c1.515218,-0.915414 2.521881,-2.452382 3.6236,-3.838056a53.040186,53.040186 0 0 1 5.52541,-5.680993c0.308937,1.772254 1.430096,3.227562 2.74956,4.450392s2.84046,2.20729 4.211879,3.371563c3.321595,2.819889 5.713405,6.647177 9.206749,9.25127a18.020656,18.020656 0 0 0 6.598545,-3.294294l-1.357686,-2.459315a1.619969,1.619969 0 0 0 -0.511725,-0.638457c-0.38429,-0.236417 -0.879779,-0.114598 -1.32599,-0.181502c-1.1927,-0.178854 -1.713594,-1.555828 -2.181613,-2.667345c-1.284837,-3.051516 -3.744842,-5.419056 -5.845798,-7.978064a40.29716,40.29716 0 0 1 -4.109858,-6.053438c-0.705764,-1.275261 -1.351893,-2.603081 -2.309673,-3.701757s-2.299855,-1.962465 -3.757383,-1.965553c-1.287843,-0.002722 -2.475683,0.651092 -3.582936,1.308754a94.762762,94.762762 0 0 0 -9.715777,6.619235c-1.621515,1.258848 -3.232973,2.588846 -5.135109,3.36079c-0.800725,0.32496 -1.64482,0.547056 -2.413195,0.942473c-1.345779,0.692557 -2.367133,1.864342 -3.466602,2.904494c-3.921464,3.709955 -9.290437,6.113661 -14.68532,6.305874z"/>
   <path stroke="null" id="svg_18" fill="#fbbebe" d="m267.720591,119.012529a9.775091,9.775091 0 0 1 -0.712865,3.30299a4.130066,4.130066 0 0 1 -2.371454,2.291265a5.088154,5.088154 0 0 1 -2.311976,0.075033a4.474371,4.474371 0 0 1 -1.883732,-0.641701c-0.890095,-0.611958 -1.333864,-1.703899 -1.495585,-2.772552c-0.161721,-1.067371 -0.089279,-2.158 -0.192772,-3.233121a17.657001,17.657001 0 0 0 -0.494214,-2.572005c-0.069868,-0.280748 -0.141028,-0.560197 -0.2109,-0.839654c-0.068557,-0.279453 -0.135835,-0.55891 -0.197936,-0.838355c-0.056933,-0.262641 -0.109965,-0.526564 -0.155258,-0.791787c-0.03751,-0.223819 -0.071131,-0.448941 -0.095739,-0.67535a7.574914,7.574914 0 0 0 -0.332492,-1.978163a6.00592,6.00592 0 0 0 -0.693458,-1.17345c-0.117736,-0.168189 -0.23159,-0.336374 -0.33639,-0.511039a2.421665,2.421665 0 0 1 -0.399754,-1.540874a1.351071,1.351071 0 0 1 0.060802,-0.247107c0.010345,-0.031051 0.021985,-0.062085 0.034949,-0.091853a0.740856,0.740856 0 0 0 0.505854,-0.472254a1.41168,1.41168 0 0 0 -0.060802,-0.730972a4.653538,4.653538 0 0 0 -0.394606,-0.940573c-0.10867,-0.196654 -0.477389,-0.551143 -0.47998,-0.776269c-0.005181,-0.452818 0.879767,-0.817661 1.238142,-0.996203a6.905932,6.905932 0 0 1 3.534563,-0.716746c0.782721,0.05304 1.63144,0.293683 2.063569,0.949623c0.388135,0.591248 0.336357,1.35716 0.501964,2.044158a0.604684,0.604684 0 0 0 0.122904,0.272981a0.551509,0.551509 0 0 0 0.304044,0.13972a1.870563,1.870563 0 0 0 0.582202,0.023296l0.001295,0a1.205265,1.205265 0 0 0 0.152655,-0.022001a2.038119,2.038119 0 0 0 0.835768,-0.360957q0.240656,-0.064042 0.485168,-0.104796a0.10325,0.10325 0 0 0 0.019427,-0.003885c0.648177,2.045445 0.732275,4.238382 1.262717,6.32135c0.262624,1.036303 0.639115,2.059676 0.692146,3.125739c0.003885,0.046572 0.005181,0.094443 0.006476,0.142311c0.007771,0.34285 -0.019394,0.688281 -0.005181,1.02984a2.870306,2.870306 0 0 0 0.051769,0.457991a6.4187,6.4187 0 0 0 0.216048,0.716754l0.003885,0.01164c0.024575,0.075041 0.047871,0.151377 0.067278,0.227704c0.014214,0.05563 0.027165,0.109973 0.037527,0.165603l0.001279,0.003877a6.141714,6.141714 0 0 1 0.042662,1.729794z"/>
   <circle stroke="null" transform="matrix(0.41115967625683425,0,0,0.41115967625683425,-7041.686423140708,-4920.196779788415) " id="svg_19" fill="#fbbebe" r="18.565109" cy="12204.987103" cx="17755.455587"/>
   <path stroke="null" id="svg_20" fill="#fbbebe" d="m307.102867,139.591182a12.517756,12.517756 0 0 0 -2.152832,-5.798655q0.296923,1.765984 0.595145,3.530686a1.321467,1.321467 0 0 1 -1.384325,-0.425645a4.250005,4.250005 0 0 1 -0.725816,-1.346815a27.739179,27.739179 0 0 0 -3.375415,-6.058713c-4.859398,-0.404947 -9.663169,-2.419338 -13.936483,-4.767528c-4.274593,-2.346899 -8.274926,-5.160835 -12.492602,-7.607346a17.91565,17.91565 0 0 0 -2.279617,-1.164404c-1.319633,-0.529163 -2.800992,-0.803431 -4.052086,-1.425733c-0.084082,-0.041404 -0.168164,-0.085386 -0.250984,-0.130671a5.171706,5.171706 0 0 1 -0.799537,-0.536909a4.252884,4.252884 0 0 1 -0.38295,-0.351912a8.367572,8.367572 0 0 1 -1.46326,-2.447802c-0.671457,-1.48524 -0.910817,-3.277111 -1.580979,-4.762356a4.606189,4.606189 0 0 1 1.028541,-0.7258l0.001295,0c0.054327,-0.028469 0.10867,-0.055638 0.164308,-0.081508a4.909411,4.909411 0 0 1 0.824116,-0.30145q0.240656,-0.064042 0.485168,-0.104796a0.10325,0.10325 0 0 0 0.019427,-0.003885a4.755325,4.755325 0 0 1 2.257616,0.178542c1.063473,0.35967 1.960043,1.077711 2.854057,1.756939a46.880451,46.880451 0 0 1 4.172395,3.309457c0.737444,0.706372 1.410195,1.482642 2.203273,2.124363a17.327885,17.327885 0 0 0 2.079078,1.377862q6.437169,3.834714 12.875568,7.668149c1.452894,0.865532 2.907088,1.73106 4.327674,2.647046c2.157992,1.392096 4.238349,2.900625 6.31744,4.407866q1.837793,1.331282 3.674316,2.663858a3.999642,3.999642 0 0 1 1.041467,0.962566a3.483509,3.483509 0 0 1 0.461884,1.411511a12.905233,12.905233 0 0 1 -0.505883,6.003083z"/>
   <path stroke="null" id="svg_21" fill="#3051d3" d="m269.613389,124.752972c-0.514916,2.309377 -2.848876,3.705371 -4.068906,5.733975c-1.516291,2.517675 -0.897882,5.444165 -0.328607,8.327973q-1.560289,1.344883 -3.121874,2.689749c-0.574423,0.492923 -1.14885,0.988428 -1.767275,1.424438a23.580271,23.580271 0 0 1 -2.820416,1.619788q-1.381743,0.710287 -2.763482,1.421848a13.20982,13.20982 0 0 1 -2.70527,1.146284c-1.815159,0.465753 -3.742861,0.13972 -5.538609,-0.399779a2.50298,2.50298 0 0 1 -0.60549,-0.247107a0.984115,0.984115 0 0 1 -0.287211,-0.26005a1.60791,1.60791 0 0 1 -0.182411,-1.04407c0.182411,-3.022237 0.921146,-5.981082 1.657307,-8.917934a35.055392,35.055392 0 0 1 1.582274,-5.171188a34.980067,34.980067 0 0 1 2.226586,-4.173682a28.109963,28.109963 0 0 1 3.260282,-4.733899a7.597742,7.597742 0 0 0 1.511115,-1.948412c0.45929,-1.047947 0.282056,-2.249866 0.375191,-3.390965a7.050747,7.050747 0 0 1 0.671473,-2.469795l0,-0.001295a7.028059,7.028059 0 0 1 0.716738,-1.185094q0.188262,0.438588 0.376491,0.875881q0.124207,0.287216 0.245804,0.573157q0.159143,0.368724 0.315688,0.734857q0.452165,1.051841 0.903059,2.10237a8.876806,8.876806 0 0 0 1.371374,2.443933a2.672221,2.672221 0 0 0 4.573481,-0.350616a8.741769,8.741769 0 0 0 0.934093,-2.472385a7.900626,7.900626 0 0 0 0.103509,-3.221473c-0.311803,-2.059684 -1.187684,-4.163341 -1.824225,-6.076825a6.144827,6.144827 0 0 1 -0.443752,-2.002759a1.377977,1.377977 0 0 1 0.02328,-0.230295c0.003885,-0.019403 0.007771,-0.040105 0.011652,-0.059507a4.909411,4.909411 0 0 1 0.824116,-0.30145q0.240656,-0.064042 0.485168,-0.104796q0.84032,4.548886 1.683193,9.097767c0.012952,0.071159 0.027178,0.142315 0.040113,0.214765c0.080213,0.434703 0.161721,0.869414 0.252279,1.302821c0.081525,0.393303 0.169492,0.785315 0.267817,1.174745l0.003885,0.01164c0.033641,0.131982 0.068573,0.262636 0.104805,0.393307l0.001279,0.003877c0.099624,0.357084 0.210884,0.711573 0.336374,1.060891c0.760744,2.104953 2.086857,4.224144 1.599103,6.409309z"/>
   <path stroke="null" id="svg_22" fill="#3f3d56" d="m300.591878,157.207026a2.706537,2.706537 0 0 0 0.250807,1.29239c0.477735,0.87311 1.624003,1.071585 2.615913,1.153237a77.452977,77.452977 0 0 0 17.377952,-0.529467a2.008782,2.008782 0 0 0 0.884552,-0.274515c0.818146,-0.573605 0.313834,-1.971552 -0.579534,-2.419079s-1.953527,-0.339675 -2.933748,-0.533471a9.242508,9.242508 0 0 1 -2.7457,-1.190788q-2.98187,-1.713175 -5.876705,-3.572188c-1.148998,-0.737884 -2.505081,-1.525374 -3.799062,-1.087875c-3.505202,1.185785 -5.217546,3.380559 -5.194476,7.161756z"/>
   <path stroke="null" id="svg_23" fill="#fbbebe" d="m257.878916,113.622702l0,0.001295c-0.009046,0.054335 -0.018116,0.107378 -0.029756,0.160426c-0.014226,0.087988 -0.031047,0.177243 -0.047867,0.265198c-0.160426,0.821546 -0.35708,1.639203 -0.583489,2.451692c-0.621016,2.244681 -1.452899,4.453143 -2.278322,6.629259q-3.322396,8.752323 -6.64608,17.505946c-0.558914,1.469719 -1.116521,2.940729 -1.751762,4.380693c-0.212158,0.479992 -0.430821,0.963857 -0.648181,1.452907c-0.778847,1.750459 -1.526636,3.557855 -1.775042,5.420877a11.286234,11.286234 0 0 0 -0.078918,3.716994c0.248406,1.221317 0.989735,2.414165 2.150238,2.865688c0.566673,0.221237 1.37785,0.517506 1.222604,1.106172c-0.084082,0.323439 -0.451523,0.481283 -0.781438,0.535618a3.006539,3.006539 0 0 1 -2.452979,-0.706372c-0.61972,-0.549852 -1.095815,-1.405035 -1.919947,-1.496888c-0.570554,-0.062085 -1.095815,0.279449 -1.618501,0.518793c-2.132126,0.97421 -4.616168,0.292392 -6.855676,-0.399771c0.175952,-0.906932 1.086769,-1.504651 1.991111,-1.685779c0.904342,-0.182419 1.83973,-0.05304 2.762171,-0.077623a1.442998,1.442998 0 0 0 0.839654,-0.21606a1.523532,1.523532 0 0 0 0.452818,-0.773675a32.466632,32.466632 0 0 0 1.320945,-5.405356c0.297556,-1.918656 0.421772,-3.867068 0.846113,-5.762432c0.329919,-1.478781 0.83967,-2.910974 1.276947,-4.362585a92.380335,92.380335 0 0 0 2.080386,-9.077065a32.078756,32.078756 0 0 0 0.586079,-3.851542c0.073741,-1.073826 0.038805,-2.152832 0.142298,-3.222776a25.034567,25.034567 0 0 1 0.868127,-4.110293q0.593826,-2.198754 1.186389,-4.394931c0.586083,-2.167058 1.214833,-4.418207 2.700086,-6.102695a5.740443,5.740443 0 0 1 4.123249,-1.969105a4.063039,4.063039 0 0 1 0.875881,0.094439c0.047855,0.01164 0.095739,0.023288 0.143589,0.036223a3.550146,3.550146 0 0 1 0.894013,0.370023c0.457983,-0.291101 0.690851,-0.188895 0.9949,0.260042a2.867095,2.867095 0 0 1 0.36226,1.560289a21.554544,21.554544 0 0 1 -0.351899,4.282376z"/>
   <path stroke="null" id="svg_24" fill="#3051d3" d="m258.382192,115.338237l-0.019407,0.019403l-0.104788,0.104796l-1.040193,1.038898l-0.509739,-2.141184l-1.747877,-7.340845a4.063039,4.063039 0 0 1 0.875881,0.094439a1.351071,1.351071 0 0 1 0.060802,-0.247107l0.082787,0.283334l0.592555,2.01569l1.121689,3.826963l0.185022,0.630065l0,0.001295l0.503268,1.714252z"/>
   <path stroke="null" id="svg_25" fill="#2f2e41" d="m264.982896,91.919076a5.173067,5.173067 0 0 1 -1.521492,3.657607a5.062987,5.062987 0 0 1 -0.55921,0.483664a5.151058,5.151058 0 0 1 -3.098364,1.037829l-6.206862,0a5.176583,5.176583 0 0 1 0,-10.353153l6.206866,0a5.192614,5.192614 0 0 1 5.179062,5.174054z"/>
   <circle stroke="null" transform="matrix(0.41115967625683425,0,0,0.41115967625683425,-7041.686423140708,-4920.196779788415) " id="svg_26" fill="#2f2e41" r="12.901179" cy="12178.240763" cx="17785.033887"/>
   <path stroke="null" id="svg_27" opacity="0.1" d="m270.672976,81.700306c-0.065066,0 -0.129536,0.002582 -0.194067,0.004905a5.303039,5.303039 0 0 1 0,10.599076c0.064527,0.002323 0.128997,0.004905 0.194067,0.004905a5.304441,5.304441 0 1 0 0,-10.608886z"/>
   <path stroke="null" id="svg_28" opacity="0.1" d="m245.444527,81.700306c0.065066,0 0.129536,0.002582 0.194067,0.004905a5.303039,5.303039 0 0 0 0,10.599076c-0.064552,0.002323 -0.129001,0.004905 -0.194067,0.004905a5.304445,5.304445 0 0 1 0,-10.608886z"/>
   <path stroke="null" id="svg_29" opacity="0.1" d="m262.902194,96.060346a5.151058,5.151058 0 0 1 -3.098364,1.037829l-6.206862,0a5.151144,5.151144 0 0 1 -3.098392,-1.037829l12.403618,0z"/>
   <path stroke="null" id="svg_30" fill="#fbbebe" d="m302.984062,134.495943s1.337206,3.853228 2.561114,2.82727l-0.975509,-5.036632l-1.585604,2.209362z"/>
   <path stroke="null" id="svg_31" fill="#57b894" d="m485.712111,252.002796a8.557269,8.557269 0 1 0 1.13957,-16.411537l0.214185,4.404425l-2.083815,-3.774631a8.524985,8.524985 0 0 0 -4.392694,4.819865a8.39114,8.39114 0 0 0 -0.492212,2.314771a8.555641,8.555641 0 0 0 5.614965,8.647107z"/>
   <path stroke="#3f3d56" id="svg_32" stroke-miterlimit="10" fill="none" d="m496.022906,303.086681c-0.735589,-3.745776 2.451868,-7.066519 5.600348,-9.224988s6.827306,-4.279264 7.901564,-7.942306c1.543905,-5.264435 -3.054916,-10.085669 -6.634325,-14.243295a51.518488,51.518488 0 0 1 -6.793834,-10.097004c-0.744639,-1.452422 -1.429018,-2.970744 -1.624989,-4.591116c-0.282224,-2.33352 0.46746,-4.655598 1.222748,-6.881468q3.774137,-11.122564 8.070419,-22.058737"/>
   <path stroke="#3f3d56" id="svg_33" stroke-miterlimit="10" fill="none" d="m486.064524,250.868843a8.557269,8.557269 0 1 0 1.13957,-16.411537l0.214185,4.404425l-2.083819,-3.774631a8.524985,8.524985 0 0 0 -4.39269,4.819865a8.39114,8.39114 0 0 0 -0.492212,2.314771a8.555637,8.555637 0 0 0 5.614965,8.647107z"/>
   <path stroke="null" id="svg_34" fill="#57b894" d="m494.976998,226.526734a8.547265,8.547265 0 0 1 6.159143,-5.426337l0.704567,4.18716l1.306254,-4.397624a8.556233,8.556233 0 1 1 -8.169977,5.636802l0.000012,0z"/>
   <path stroke="#3f3d56" id="svg_35" stroke-miterlimit="10" fill="none" d="m495.44688,225.014793a8.54727,8.54727 0 0 1 6.159143,-5.426333l0.704567,4.18716l1.306254,-4.397628a8.556233,8.556233 0 1 1 -8.169977,5.636802l0.000012,0z"/>
   <path stroke="null" id="svg_36" fill="#57b894" d="m501.388367,271.760955a8.556233,8.556233 0 0 0 7.57315,-15.222229l-1.003727,3.379428l-0.711738,-4.236515a0.14877,0.14877 0 0 0 -0.021791,-0.008264a8.556697,8.556697 0 1 0 -5.835918,16.08758l0.000025,0z"/>
   <path stroke="#3f3d56" id="svg_37" stroke-miterlimit="10" fill="none" d="m501.795522,270.229517a8.556233,8.556233 0 0 0 7.57315,-15.222229l-1.003727,3.379428l-0.711738,-4.236515a0.148881,0.148881 0 0 0 -0.021791,-0.008264a8.556697,8.556697 0 1 0 -5.835918,16.08758l0.000025,0z"/>
   <path stroke="null" id="svg_38" fill="#57b894" d="m492.479803,285.971715a8.55266,8.55266 0 1 0 1.648989,-6.700821l3.812548,5.738366l-5.209368,-3.045739a8.476624,8.476624 0 0 0 -0.252168,4.008194z"/>
   <path stroke="#3f3d56" id="svg_39" stroke-miterlimit="10" fill="none" d="m492.832217,284.837761a8.55266,8.55266 0 1 0 1.648989,-6.700821l3.812548,5.738371l-5.209368,-3.045743a8.476575,8.476575 0 0 0 -0.252168,4.008194z"/>
   <path stroke="null" id="svg_40" fill="#57b894" d="m55.433817,272.848226a5.622284,5.622284 0 1 0 0.748722,-10.782663l0.140728,2.893787l-1.369108,-2.48a5.601076,5.601076 0 0 0 -2.886078,3.166752a5.51317,5.51317 0 0 0 -0.323394,1.520851a5.621211,5.621211 0 0 0 3.68913,5.681273z"/>
   <path stroke="#3f3d56" id="svg_41" stroke-miterlimit="10" fill="none" d="m62.208199,306.411268c-0.483298,-2.461041 1.610924,-4.642815 3.67953,-6.060987s4.485662,-2.811551 5.191475,-5.218237c1.014376,-3.458831 -2.007146,-6.626467 -4.358876,-9.358105a33.848482,33.848482 0 0 1 -4.463669,-6.633917a9.1317,9.1317 0 0 1 -1.06765,-3.016444c-0.185433,-1.533165 0.307136,-3.05881 0.803369,-4.521252q2.479675,-7.30773 5.30241,-14.492992"/>
   <path stroke="#3f3d56" id="svg_42" stroke-miterlimit="10" fill="none" d="m55.665362,272.103196a5.62228,5.62228 0 1 0 0.748722,-10.782663l0.140728,2.893791l-1.369112,-2.480021a5.601072,5.601072 0 0 0 -2.886078,3.166752a5.513289,5.513289 0 0 0 -0.323394,1.520847a5.621202,5.621202 0 0 0 3.689134,5.681293z"/>
   <path stroke="null" id="svg_43" fill="#57b894" d="m61.521016,256.10999a5.615709,5.615709 0 0 1 4.046671,-3.565203l0.462912,2.751041l0.858242,-2.889322a5.621589,5.621589 0 1 1 -5.367825,3.703484z"/>
   <path stroke="#3f3d56" id="svg_44" stroke-miterlimit="10" fill="none" d="m61.829739,255.116615a5.615709,5.615709 0 0 1 4.046671,-3.565198l0.462912,2.751041l0.858242,-2.889322a5.621589,5.621589 0 1 1 -5.367825,3.70348z"/>
   <path stroke="null" id="svg_45" fill="#57b894" d="m65.733404,285.829696a5.621601,5.621601 0 0 0 4.975706,-10.001282l-0.659467,2.220344l-0.467624,-2.783465a0.097856,0.097856 0 0 0 -0.014308,-0.005427a5.621905,5.621905 0 1 0 -3.834307,10.56983z"/>
   <path stroke="#3f3d56" id="svg_46" stroke-miterlimit="10" fill="none" d="m66.000901,284.823515a5.621601,5.621601 0 0 0 4.975706,-10.001282l-0.659467,2.220344l-0.467624,-2.783469a0.097856,0.097856 0 0 0 -0.014308,-0.005427a5.621905,5.621905 0 1 0 -3.834307,10.569834z"/>
   <path stroke="null" id="svg_47" fill="#57b894" d="m59.88032,295.166425a5.619254,5.619254 0 1 0 1.083406,-4.402562l2.504912,3.770215l-3.422649,-2.001114a5.569302,5.569302 0 0 0 -0.165669,2.633461z"/>
   <path stroke="#3f3d56" id="svg_48" stroke-miterlimit="10" fill="none" d="m60.111856,294.421396a5.619254,5.619254 0 1 0 1.083406,-4.402562l2.504912,3.770215l-3.422653,-2.001114a5.569302,5.569302 0 0 0 -0.165664,2.633461z"/>
   <ellipse stroke="null" transform="matrix(0.41115967625683425,0,0,0.41115967625683425,-7041.686423140708,-4920.196779788415) " id="svg_49" fill="#2f2e41" ry="22" rx="17" cy="12479.105823" cx="17733.164897"/>
   <ellipse stroke="null" transform="matrix(0.41115967625683425,0,0,0.41115967625683425,-7041.686423140708,-4920.196779788415) " id="svg_50" fill="#2f2e41" ry="22" rx="17" cy="12479.605823" cx="17825.664897"/>
   <path stroke="null" id="svg_51" fill="#2f2e41" d="m282.163109,237.639287c0,4.086927 -5.706896,7.400874 -12.74595,7.400874s-12.74595,-3.313947 -12.74595,-7.400874c0,-3.540085 4.280172,-6.500434 9.999403,-7.224076a20.600551,20.600551 0 0 1 2.746547,-0.176799a20.845257,20.845257 0 0 1 4.576207,0.493392c4.777675,1.064904 8.169743,3.757999 8.169743,6.907483z"/>
   <ellipse stroke="#3f3d56" transform="matrix(0.41115967625683425,0,0,0.41115967625683425,-7041.686423140708,-4920.196779788415) " id="svg_52" stroke-miterlimit="10" fill="none" ry="22" rx="17" cy="12474.105823" cx="17737.164897"/>
   <ellipse stroke="#3f3d56" transform="matrix(0.41115967625683425,0,0,0.41115967625683425,-7041.686423140708,-4920.196779788415) " id="svg_53" stroke-miterlimit="10" fill="none" ry="22" rx="17" cy="12474.605823" cx="17829.664897"/>
   <ellipse stroke="#3f3d56" transform="matrix(0.41115967625683425,0,0,0.41115967625683425,-7041.686423140708,-4920.196779788415) " id="svg_54" stroke-miterlimit="10" fill="none" ry="18" rx="31" cy="12539.605823" cx="17785.664897"/>
   <path stroke="null" id="svg_55" fill="#fff" d="m274.145495,231.348544a2.029723,2.029723 0 0 1 -0.542731,1.394654a1.783911,1.783911 0 0 1 -1.307488,0.578913l-4.111597,0a1.917784,1.917784 0 0 1 -1.850219,-1.973566a2.016566,2.016566 0 0 1 0.337151,-1.127128a19.332728,19.332728 0 0 1 2.746547,-0.188582a19.597737,19.597737 0 0 1 4.576207,0.526284a2.083165,2.083165 0 0 1 0.152129,0.789427z"/>
   <circle stroke="null" transform="matrix(0.41115967625683425,0,0,0.41115967625683425,-7041.686423140708,-4920.196779788415) " id="svg_56" fill="#fff" r="5" cy="12468.105823" cx="17737.164897"/>
   <circle stroke="null" transform="matrix(0.41115967625683425,0,0,0.41115967625683425,-7041.686423140708,-4920.196779788415) " id="svg_57" fill="#fff" r="5" cy="12468.105823" cx="17830.164897"/>
   <circle stroke="null" transform="matrix(0.41115967625683425,0,0,0.41115967625683425,-7041.686423140708,-4920.196779788415) " id="svg_58" opacity="0.3" fill="#3051d3" r="5" cy="12515.105823" cx="17835.164897"/>
   <circle stroke="null" transform="matrix(0.41115967625683425,0,0,0.41115967625683425,-7041.686423140708,-4920.196779788415) " id="svg_59" opacity="0.3" fill="#3051d3" r="5" cy="12515.105823" cx="17713.164897"/>
   <path stroke="null" id="svg_93" fill="#2f2e41" d="m406.70837,148.16857c-35.33673,0 -60.70814,22.67109 -60.70814,75.57029c0,59.95243 25.3714,75.82219 60.70814,75.82219s62.21956,-17.38116 62.21956,-75.82219c-0.00002,-62.47143 -26.88282,-75.57029 -62.21956,-75.57029zm0.23229,131.49231c-24.47505,0 -37.26173,-14.35888 -37.26173,-55.8833c0,-36.6392 13.3101,-55.96073 37.78516,-55.96073s37.78517,12.69157 37.78517,55.96073c-0.00004,40.47758 -13.83356,55.8833 -38.3086,55.8833z"/>
   <path stroke="#3f3d56" id="svg_94" stroke-miterlimit="10" fill="none" d="m414.7692,143.63436c-35.33673,0 -60.70814,22.67108 -60.70814,75.57029c0,59.95242 25.3714,75.82219 60.70814,75.82219s62.21956,-17.38117 62.21956,-75.82219c-0.00002,-62.47144 -26.88282,-75.57029 -62.21956,-75.57029zm0.23231,131.4923c-24.47505,0 -37.26173,-14.35888 -37.26173,-55.8833c0,-36.6392 13.3101,-55.96073 37.78517,-55.96073s37.78516,12.69157 37.78516,55.96073c-0.00006,40.47758 -13.83358,55.8833 -38.30862,55.8833l0.00002,0z"/>
   <circle stroke="null" transform="matrix(0.41115967625683425,0,0,0.41115967625683425,-7041.686423140708,-4920.196779788415) " id="svg_95" fill="#2f2e41" r="12.901179" cy="12178.240763" cx="18066.292439"/>
   <ellipse stroke="null" transform="matrix(0.41115967625683425,0,0,0.41115967625683425,-7041.686423140708,-4920.196779788415) " id="svg_96" fill="#2f2e41" ry="46.88476" rx="36.18622" cy="12206.875083" cx="18097.758719"/>
   <path stroke="null" id="svg_97" opacity="0.1" d="m399.38219,112.2332c-7.45334,0 -13.62636,-7.10094 -14.70955,-16.36615a25.07083,25.07083 0 0 0 -0.16876,2.91097c0,10.64646 6.66125,19.27713 14.87831,19.27713s14.87832,-8.63066 14.87832,-19.27713a25.07083,25.07083 0 0 0 -0.16876,-2.91097c-1.08319,9.26521 -7.2562,16.36615 -14.70956,16.36615z"/>
   <path stroke="null" id="svg_98" fill="#3f3d56" d="m429.65787,155.23189c-0.31952,1.31302 -1.69724,2.36458 -3.22301,3.09929c-3.20782,1.54465 -7.16458,2.00559 -11.00251,2.1603a18.57464,18.57464 0 0 1 -2.93753,-0.05427a8.44403,8.44403 0 0 1 -5.03692,-2.31541a0.6911,0.6911 0 0 1 0.01797,-1.16929c2.04322,-2.24447 5.45289,-3.62069 8.88769,-4.6116c2.60445,-0.75137 7.14649,-2.69757 9.98712,-2.43493c2.7514,0.25441 3.71062,3.66806 3.30719,5.32591z"/>
   <path stroke="null" id="svg_99" opacity="0.1" d="m429.65787,155.23189c-0.31952,1.31302 -1.69724,2.36458 -3.22301,3.09929c-3.20782,1.54465 -7.16458,2.00559 -11.00251,2.1603a18.57464,18.57464 0 0 1 -2.93753,-0.05427a8.44403,8.44403 0 0 1 -5.03692,-2.31541a0.6911,0.6911 0 0 1 0.01797,-1.16929c2.04322,-2.24447 5.45289,-3.62069 8.88769,-4.6116c2.60445,-0.75137 7.14649,-2.69757 9.98712,-2.43493c2.7514,0.25441 3.71062,3.66806 3.30719,5.32591z"/>
   <path stroke="null" id="svg_100" fill="#3f3d56" d="m388.87151,145.4186a8.12849,8.12849 0 0 0 -0.49286,6.19813a10.82959,10.82959 0 0 0 3.63022,5.13819c4.15052,3.32696 9.86283,3.78478 15.18198,3.73859a117.0364,117.0364 0 0 0 13.94047,-0.95547a16.66754,16.66754 0 0 0 4.52334,-1.05028c1.73609,-0.7511 3.26166,-2.1288 3.87971,-3.91658s0.17936,-3.97693 -1.28851,-5.17004c-1.28975,-1.04833 -3.06834,-1.19252 -4.72741,-1.29223l-9.49271,-0.57046c0.93786,-0.94912 2.18662,-1.48593 3.32869,-2.17592c1.51522,-0.91542 2.52188,-2.45239 3.6236,-3.83806a53.04019,53.04019 0 0 1 5.52541,-5.68099c0.30894,1.77225 1.4301,3.22756 2.74956,4.45039s2.84046,2.20729 4.21188,3.37156c3.3216,2.81989 5.71341,6.64718 9.20675,9.25127a18.02066,18.02066 0 0 0 6.59855,-3.29429l-1.35769,-2.45932a1.61997,1.61997 0 0 0 -0.51172,-0.63845c-0.38429,-0.23642 -0.87978,-0.1146 -1.32599,-0.18151c-1.1927,-0.17885 -1.7136,-1.55582 -2.18162,-2.66734c-1.28483,-3.05152 -3.74484,-5.41906 -5.8458,-7.97806a40.29716,40.29716 0 0 1 -4.10985,-6.05344c-0.70577,-1.27526 -1.3519,-2.60308 -2.30968,-3.70176s-2.29985,-1.96246 -3.75738,-1.96555c-1.28784,-0.00272 -2.47568,0.65109 -3.58293,1.30875a94.76276,94.76276 0 0 0 -9.71578,6.61924c-1.62152,1.25884 -3.23297,2.58884 -5.13511,3.36079c-0.80073,0.32496 -1.64482,0.54705 -2.4132,0.94247c-1.34577,0.69256 -2.36713,1.86434 -3.4666,2.90449c-3.92146,3.70996 -9.29043,6.11366 -14.68532,6.30588z"/>
   <path stroke="null" id="svg_101" fill="#fbbebe" d="m408.72059,119.01253a9.77509,9.77509 0 0 1 -0.71286,3.30299a4.13007,4.13007 0 0 1 -2.37146,2.29126a5.08815,5.08815 0 0 1 -2.31197,0.07504a4.47437,4.47437 0 0 1 -1.88374,-0.6417c-0.89009,-0.61196 -1.33386,-1.7039 -1.49558,-2.77256c-0.16172,-1.06737 -0.08928,-2.158 -0.19277,-3.23312a17.657,17.657 0 0 0 -0.49422,-2.572c-0.06986,-0.28075 -0.14102,-0.5602 -0.2109,-0.83966c-0.06855,-0.27945 -0.13583,-0.55891 -0.19793,-0.83835c-0.05694,-0.26264 -0.10997,-0.52657 -0.15526,-0.79179c-0.03751,-0.22382 -0.07113,-0.44894 -0.09574,-0.67535a7.57491,7.57491 0 0 0 -0.33249,-1.97816a6.00592,6.00592 0 0 0 -0.69346,-1.17345c-0.11774,-0.16819 -0.23159,-0.33638 -0.33639,-0.51104a2.42166,2.42166 0 0 1 -0.39975,-1.54087a1.35107,1.35107 0 0 1 0.0608,-0.24711c0.01034,-0.03105 0.02198,-0.06209 0.03495,-0.09185a0.74086,0.74086 0 0 0 0.50585,-0.47226a1.41168,1.41168 0 0 0 -0.0608,-0.73097a4.65354,4.65354 0 0 0 -0.39461,-0.94057c-0.10867,-0.19666 -0.47739,-0.55115 -0.47998,-0.77627c-0.00518,-0.45282 0.87977,-0.81766 1.23814,-0.99621a6.90593,6.90593 0 0 1 3.53457,-0.71674c0.78272,0.05304 1.63144,0.29368 2.06357,0.94962c0.38813,0.59125 0.33635,1.35716 0.50196,2.04416a0.60468,0.60468 0 0 0 0.1229,0.27298a0.55151,0.55151 0 0 0 0.30405,0.13972a1.87056,1.87056 0 0 0 0.5822,0.0233l0.0013,0a1.20527,1.20527 0 0 0 0.15265,-0.022a2.03812,2.03812 0 0 0 0.83577,-0.36096q0.24066,-0.06404 0.48517,-0.1048a0.10325,0.10325 0 0 0 0.01943,-0.00388c0.64817,2.04544 0.73227,4.23838 1.26271,6.32135c0.26263,1.0363 0.63912,2.05967 0.69215,3.12574c0.00388,0.04657 0.00518,0.09444 0.00647,0.14231c0.00777,0.34285 -0.01939,0.68828 -0.00518,1.02984a2.87031,2.87031 0 0 0 0.05177,0.45799a6.4187,6.4187 0 0 0 0.21605,0.71675l0.00389,0.01164c0.02457,0.07504 0.04787,0.15138 0.06727,0.2277c0.01422,0.05563 0.02717,0.10998 0.03753,0.16561l0.00128,0.00387a6.14171,6.14171 0 0 1 0.04266,1.7298z"/>
   <circle stroke="null" transform="matrix(0.41115967625683425,0,0,0.41115967625683425,-7041.686423140708,-4920.196779788415) " id="svg_102" fill="#fbbebe" r="18.565109" cy="12204.987103" cx="18098.388049"/>
   <path stroke="null" id="svg_103" fill="#fbbebe" d="m448.10287,139.59118a12.51776,12.51776 0 0 0 -2.15284,-5.79865q0.29693,1.76598 0.59515,3.53068a1.32147,1.32147 0 0 1 -1.38433,-0.42564a4.25001,4.25001 0 0 1 -0.72581,-1.34682a27.73918,27.73918 0 0 0 -3.37542,-6.05871c-4.85939,-0.40495 -9.66317,-2.41934 -13.93648,-4.76753c-4.27459,-2.3469 -8.27493,-5.16083 -12.4926,-7.60735a17.91565,17.91565 0 0 0 -2.27962,-1.1644c-1.31963,-0.52916 -2.80099,-0.80343 -4.05208,-1.42573c-0.08409,-0.04141 -0.16817,-0.08539 -0.25099,-0.13067a5.17171,5.17171 0 0 1 -0.79954,-0.53691a4.25288,4.25288 0 0 1 -0.38295,-0.35191a8.36757,8.36757 0 0 1 -1.46326,-2.44781c-0.67145,-1.48524 -0.91081,-3.27711 -1.58097,-4.76235a4.60619,4.60619 0 0 1 1.02854,-0.7258l0.00129,0c0.05433,-0.02847 0.10867,-0.05564 0.16431,-0.08151a4.90941,4.90941 0 0 1 0.82412,-0.30145q0.24065,-0.06404 0.48516,-0.1048a0.10325,0.10325 0 0 0 0.01943,-0.00388a4.75532,4.75532 0 0 1 2.25762,0.17854c1.06347,0.35967 1.96004,1.07771 2.85405,1.75694a46.88045,46.88045 0 0 1 4.1724,3.30946c0.73744,0.70637 1.41019,1.48264 2.20327,2.12436a17.32788,17.32788 0 0 0 2.07908,1.37786q6.43717,3.83472 12.87557,7.66815c1.45289,0.86553 2.90709,1.73106 4.32767,2.64705c2.15799,1.39209 4.23835,2.90062 6.31744,4.40786q1.83779,1.33128 3.67432,2.66386a3.99964,3.99964 0 0 1 1.04146,0.96257a3.48351,3.48351 0 0 1 0.46189,1.41151a12.90523,12.90523 0 0 1 -0.50588,6.00308z"/>
   <path stroke="null" id="svg_104" fill="#3051d3" d="m410.61339,124.75297c-0.51492,2.30938 -2.84888,3.70537 -4.06891,5.73398c-1.51629,2.51767 -0.89788,5.44416 -0.3286,8.32797q-1.56029,1.34488 -3.12188,2.68975c-0.57442,0.49292 -1.14885,0.98843 -1.76727,1.42444a23.58027,23.58027 0 0 1 -2.82042,1.61979q-1.38174,0.71028 -2.76348,1.42184a13.20982,13.20982 0 0 1 -2.70527,1.14629c-1.81516,0.46575 -3.74286,0.13972 -5.53861,-0.39978a2.50298,2.50298 0 0 1 -0.60549,-0.24711a0.98411,0.98411 0 0 1 -0.28721,-0.26005a1.60791,1.60791 0 0 1 -0.18241,-1.04407c0.18241,-3.02224 0.92114,-5.98108 1.6573,-8.91793a35.05539,35.05539 0 0 1 1.58228,-5.17119a34.98007,34.98007 0 0 1 2.22658,-4.17368a28.10996,28.10996 0 0 1 3.26029,-4.7339a7.59774,7.59774 0 0 0 1.51111,-1.94841c0.45929,-1.04795 0.28206,-2.24987 0.37519,-3.39097a7.05075,7.05075 0 0 1 0.67148,-2.46979l0,-0.0013a7.02806,7.02806 0 0 1 0.71673,-1.18509q0.18826,0.43859 0.37649,0.87588q0.12421,0.28721 0.24581,0.57315q0.15914,0.36873 0.31569,0.73486q0.45216,1.05184 0.90305,2.10237a8.87681,8.87681 0 0 0 1.37138,2.44394a2.67222,2.67222 0 0 0 4.57348,-0.35062a8.74177,8.74177 0 0 0 0.93409,-2.47239a7.90063,7.90063 0 0 0 0.10351,-3.22147c-0.3118,-2.05968 -1.18768,-4.16334 -1.82422,-6.07682a6.14483,6.14483 0 0 1 -0.44376,-2.00276a1.37798,1.37798 0 0 1 0.02328,-0.2303c0.00389,-0.0194 0.00778,-0.0401 0.01166,-0.0595a4.90941,4.90941 0 0 1 0.82411,-0.30145q0.24066,-0.06405 0.48517,-0.1048q0.84032,4.54888 1.68319,9.09777c0.01296,0.07116 0.02718,0.14231 0.04012,0.21476c0.08021,0.4347 0.16172,0.86942 0.25228,1.30282c0.08152,0.39331 0.16949,0.78532 0.26781,1.17475l0.00389,0.01164c0.03364,0.13198 0.06857,0.26263 0.1048,0.3933l0.00128,0.00388c0.09963,0.35709 0.21089,0.71158 0.33638,1.06089c0.76074,2.10495 2.08685,4.22415 1.5991,6.40931z"/>
   <path stroke="null" id="svg_105" fill="#3f3d56" d="m441.59188,157.20703a2.70654,2.70654 0 0 0 0.25081,1.29239c0.47773,0.87311 1.624,1.07158 2.61591,1.15323a77.45298,77.45298 0 0 0 17.37795,-0.52946a2.00878,2.00878 0 0 0 0.88455,-0.27452c0.81815,-0.5736 0.31384,-1.97155 -0.57953,-2.41908s-1.95353,-0.33967 -2.93375,-0.53347a9.24251,9.24251 0 0 1 -2.7457,-1.19079q-2.98187,-1.71317 -5.8767,-3.57218c-1.149,-0.73789 -2.50508,-1.52538 -3.79907,-1.08788c-3.5052,1.18578 -5.21754,3.38056 -5.19447,7.16176z"/>
   <path stroke="null" id="svg_106" fill="#fbbebe" d="m398.87892,113.6227l0,0.0013c-0.00905,0.05433 -0.01812,0.10738 -0.02976,0.16042c-0.01423,0.08799 -0.03105,0.17725 -0.04787,0.2652c-0.16042,0.82155 -0.35708,1.6392 -0.58349,2.45169c-0.62101,2.24468 -1.45289,4.45315 -2.27832,6.62926q-3.32239,8.75233 -6.64608,17.50595c-0.55891,1.46972 -1.11652,2.94073 -1.75176,4.38069c-0.21216,0.47999 -0.43082,0.96386 -0.64818,1.45291c-0.77885,1.75046 -1.52664,3.55785 -1.77504,5.42087a11.28623,11.28623 0 0 0 -0.07892,3.717c0.24841,1.22132 0.98974,2.41416 2.15024,2.86569c0.56667,0.22123 1.37785,0.5175 1.2226,1.10617c-0.08408,0.32344 -0.45152,0.48128 -0.78144,0.53562a3.00654,3.00654 0 0 1 -2.45298,-0.70638c-0.61972,-0.54985 -1.09581,-1.40503 -1.91994,-1.49688c-0.57056,-0.06209 -1.09582,0.27944 -1.6185,0.51879c-2.13213,0.97421 -4.61617,0.29239 -6.85568,-0.39977c0.17595,-0.90693 1.08677,-1.50465 1.99111,-1.68578c0.90434,-0.18242 1.83973,-0.05304 2.76217,-0.07762a1.443,1.443 0 0 0 0.83966,-0.21606a1.52353,1.52353 0 0 0 0.45281,-0.77368a32.46663,32.46663 0 0 0 1.32095,-5.40535c0.29755,-1.91866 0.42177,-3.86707 0.84611,-5.76244c0.32992,-1.47878 0.83967,-2.91097 1.27695,-4.36258a92.38033,92.38033 0 0 0 2.08038,-9.07707a32.07876,32.07876 0 0 0 0.58608,-3.85154c0.07375,-1.07383 0.03881,-2.15283 0.1423,-3.22278a25.03457,25.03457 0 0 1 0.86813,-4.11029q0.59382,-2.19875 1.18639,-4.39493c0.58608,-2.16706 1.21483,-4.41821 2.70008,-6.1027a5.74044,5.74044 0 0 1 4.12325,-1.9691a4.06304,4.06304 0 0 1 0.87588,0.09444c0.04786,0.01164 0.09574,0.02329 0.14359,0.03622a3.55015,3.55015 0 0 1 0.89402,0.37002c0.45798,-0.2911 0.69085,-0.18889 0.9949,0.26005a2.86709,2.86709 0 0 1 0.36226,1.56029a21.55454,21.55454 0 0 1 -0.3519,4.28237z"/>
   <path stroke="null" id="svg_107" fill="#3051d3" d="m399.38219,115.33824l-0.0194,0.0194l-0.10479,0.1048l-1.0402,1.03889l-0.50973,-2.14118l-1.74788,-7.34084a4.06304,4.06304 0 0 1 0.87588,0.09443a1.35107,1.35107 0 0 1 0.0608,-0.2471l0.08279,0.28333l0.59255,2.01569l1.12169,3.82696l0.18502,0.63007l0,0.0013l0.50327,1.71425z"/>
   <path stroke="null" id="svg_108" fill="#2f2e41" d="m405.9829,91.91908a5.17307,5.17307 0 0 1 -1.5215,3.6576a5.06299,5.06299 0 0 1 -0.55921,0.48367a5.15106,5.15106 0 0 1 -3.09836,1.03782l-6.20686,0a5.17658,5.17658 0 0 1 0,-10.35315l6.20686,0a5.19261,5.19261 0 0 1 5.17907,5.17406z"/>
   <circle stroke="null" transform="matrix(0.41115967625683425,0,0,0.41115967625683425,-7041.686423140708,-4920.196779788415) " id="svg_109" fill="#2f2e41" r="12.901179" cy="12178.240763" cx="18127.966349"/>
   <path stroke="null" id="svg_110" opacity="0.1" d="m411.67298,81.70031c-0.06507,0 -0.12954,0.00258 -0.19407,0.0049a5.30304,5.30304 0 0 1 0,10.59908c0.06453,0.00232 0.129,0.0049 0.19407,0.0049a5.30444,5.30444 0 1 0 0,-10.60888z"/>
   <path stroke="null" id="svg_111" opacity="0.1" d="m386.44453,81.70031c0.06506,0 0.12953,0.00258 0.19406,0.0049a5.30304,5.30304 0 0 0 0,10.59908c-0.06455,0.00232 -0.129,0.0049 -0.19406,0.0049a5.30444,5.30444 0 0 1 0,-10.60888z"/>
   <path stroke="null" id="svg_112" opacity="0.1" d="m403.90219,96.06035a5.15106,5.15106 0 0 1 -3.09836,1.03782l-6.20686,0a5.15114,5.15114 0 0 1 -3.09839,-1.03782l12.40361,0z"/>
   <path stroke="null" id="svg_113" fill="#fbbebe" d="m443.98406,134.49594s1.33721,3.85323 2.56112,2.82727l-0.97551,-5.03663l-1.58561,2.20936z"/>
   <ellipse stroke="null" transform="matrix(0.41115967625683425,0,0,0.41115967625683425,-7041.686423140708,-4920.196779788415) " id="svg_114" fill="#2f2e41" ry="22" rx="17" cy="12479.105823" cx="18076.097359"/>
   <ellipse stroke="null" transform="matrix(0.41115967625683425,0,0,0.41115967625683425,-7041.686423140708,-4920.196779788415) " id="svg_115" fill="#2f2e41" ry="22" rx="17" cy="12479.605823" cx="18168.597359"/>
   <path stroke="null" id="svg_116" fill="#2f2e41" d="m423.16311,237.63929c0,4.08692 -5.7069,7.40087 -12.74595,7.40087s-12.74595,-3.31395 -12.74595,-7.40087c0,-3.54009 4.28017,-6.50044 9.9994,-7.22408a20.60055,20.60055 0 0 1 2.74655,-0.1768a20.84526,20.84526 0 0 1 4.57621,0.49339c4.77767,1.06491 8.16974,3.758 8.16974,6.90749z"/>
   <ellipse stroke="#3f3d56" transform="matrix(0.41115967625683425,0,0,0.41115967625683425,-7041.686423140708,-4920.196779788415) " id="svg_117" stroke-miterlimit="10" fill="none" ry="22" rx="17" cy="12474.105823" cx="18080.097359"/>
   <ellipse stroke="#3f3d56" transform="matrix(0.41115967625683425,0,0,0.41115967625683425,-7041.686423140708,-4920.196779788415) " id="svg_118" stroke-miterlimit="10" fill="none" ry="22" rx="17" cy="12474.605823" cx="18172.597359"/>
   <ellipse stroke="#3f3d56" transform="matrix(0.41115967625683425,0,0,0.41115967625683425,-7041.686423140708,-4920.196779788415) " id="svg_119" stroke-miterlimit="10" fill="none" ry="18" rx="31" cy="12539.605823" cx="18128.597359"/>
   <path stroke="null" id="svg_120" fill="#fff" d="m415.1455,231.34854a2.02972,2.02972 0 0 1 -0.54274,1.39466a1.78391,1.78391 0 0 1 -1.30748,0.57891l-4.1116,0a1.91778,1.91778 0 0 1 -1.85022,-1.97357a2.01657,2.01657 0 0 1 0.33715,-1.12712a19.33273,19.33273 0 0 1 2.74655,-0.18859a19.59774,19.59774 0 0 1 4.57621,0.52629a2.08317,2.08317 0 0 1 0.15213,0.78942z"/>
   <circle stroke="null" transform="matrix(0.41115967625683425,0,0,0.41115967625683425,-7041.686423140708,-4920.196779788415) " id="svg_121" fill="#fff" r="5" cy="12468.105823" cx="18080.097359"/>
   <circle stroke="null" transform="matrix(0.41115967625683425,0,0,0.41115967625683425,-7041.686423140708,-4920.196779788415) " id="svg_122" fill="#fff" r="5" cy="12468.105823" cx="18173.097359"/>
   <circle stroke="null" transform="matrix(0.41115967625683425,0,0,0.41115967625683425,-7041.686423140708,-4920.196779788415) " id="svg_123" opacity="0.3" fill="#3051d3" r="5" cy="12515.105823" cx="18178.097359"/>
   <circle stroke="null" transform="matrix(0.41115967625683425,0,0,0.41115967625683425,-7041.686423140708,-4920.196779788415) " id="svg_124" opacity="0.3" fill="#3051d3" r="5" cy="12515.105823" cx="18056.097359"/>
  </g>
 </g>
</svg>