<svg width="1100" height="500" xmlns="http://www.w3.org/2000/svg">
 <!-- Created with Method Draw - http://github.com/duopixel/Method-Draw/ -->

 <g>
  <title>background</title>
 </g>
 <g>
  <title>Layer 1</title>
  <g stroke="null" id="svg_60">
   <ellipse stroke="null" cx="17944.016648" cy="12562.094648" rx="527.5" ry="34.9216" fill="#f2f2f2" id="svg_5" transform="matrix(0.9643203891070308,0,0,1.032835904871668,-16753.10746262938,-12533.711382612033) "/>
   <path stroke="null" d="m511.679621,60.150573c-79.590088,0 -136.734917,54.690877 -136.734917,182.302898c0,144.626965 57.144829,182.910572 136.734917,182.910572s140.139138,-41.92965 140.139138,-182.910572c-0.000045,-150.703705 -60.549049,-182.302898 -140.139138,-182.302898zm0.523194,317.207055c-55.125951,0 -83.925806,-34.638817 -83.925806,-134.810751c0,-88.387015 29.978771,-134.99754 85.104744,-134.99754s85.104767,30.616661 85.104767,134.99754c-0.00009,97.646577 -31.157777,134.810751 -86.283705,134.810751z" fill="#2f2e41" id="svg_6"/>
   <path stroke="null" d="m327.286113,324.489773l-32.907209,0l0,-103.788233a19.406547,20.785394 0 0 0 -19.406525,-20.78537l-7.710793,0a19.406547,20.785394 0 0 0 -19.40657,20.785394l0,103.788209l-92.819884,0a11.078796,11.86595 0 0 1 -9.795619,-17.409221l98.239559,-199.147191a19.406547,20.785394 0 0 0 -8.872095,-28.505121l-5.799328,-2.933143a19.406547,20.785394 0 0 0 -25.401401,8.996277l-119.816071,240.063867a26.314947,28.184639 0 0 0 -3.107746,13.287145l0,0a26.314992,28.184687 0 0 0 26.315014,28.184687l141.057571,0l0,65.629081a23.26191,24.914682 0 0 0 23.26191,24.914682l0.000045,0a23.26191,24.914682 0 0 0 23.26191,-24.914682l0,-65.629033l32.907186,0a19.857757,21.268662 0 0 0 19.857735,-21.268662l0,0a19.857757,21.268662 0 0 0 -19.85769,-21.268686z" fill="#3051d3" id="svg_7"/>
   <path stroke="#3f3d56" d="m336.363937,312.336245l-32.907164,0l0,-103.788233a19.406547,20.785394 0 0 0 -19.406547,-20.785394l-7.710793,0a19.40657,20.785418 0 0 0 -19.40657,20.785394l0,103.788233l-92.819906,0a11.078796,11.86595 0 0 1 -9.795597,-17.409245l98.239537,-199.147119a19.40657,20.785418 0 0 0 -8.872073,-28.505169l-5.799328,-2.933143a19.40657,20.785418 0 0 0 -25.401423,8.996205l-119.816071,240.063915a26.314992,28.184687 0 0 0 -3.107723,13.287169l0,0a26.314992,28.184687 0 0 0 26.314992,28.184711l141.057594,0l0,65.629057a23.26191,24.914682 0 0 0 23.26191,24.914682l0.000045,0a23.26191,24.914682 0 0 0 23.26191,-24.914682l0,-65.629033l32.907186,0a19.857757,21.268662 0 0 0 19.857735,-21.268638l0,0a19.857757,21.268662 0 0 0 -19.85769,-21.26871l-0.000023,0z" fill="none" stroke-miterlimit="10" id="svg_9"/>
   <path stroke="#3f3d56" d="m529.83529,49.212417c-79.590066,0 -136.734895,54.690852 -136.734895,182.302898c0,144.626941 57.144806,182.910572 136.734895,182.910572s140.139138,-41.929674 140.139138,-182.910572c-0.000045,-150.703753 -60.549049,-182.302898 -140.139138,-182.302898zm0.523239,317.207031c-55.125951,0 -83.925806,-34.638817 -83.925806,-134.810751c0,-88.387015 29.978771,-134.99754 85.104767,-134.99754s85.104744,30.616661 85.104744,134.99754c-0.000135,97.646577 -31.157822,134.810751 -86.28375,134.810751l0.000045,0z" fill="none" stroke-miterlimit="10" id="svg_11"/>
   <path stroke="null" d="m595.636869,27.16724s3.011842,9.295386 5.768494,6.820399l-2.197173,-12.150175l-3.571321,5.329776z" fill="#fbbebe" id="svg_30"/>
   <path stroke="null" d="m1007.201196,310.636326a19.273817,20.643233 0 1 0 2.566691,-39.590576l0.482427,10.625056l-4.693456,-9.105774a19.201112,20.565362 0 0 0 -9.893798,11.627271a18.899637,20.242467 0 0 0 -1.108643,5.584063a19.270146,20.639301 0 0 0 12.646779,20.85996z" fill="#57b894" id="svg_31"/>
   <path stroke="#3f3d56" d="m1030.424546,433.869138c-1.656793,-9.036153 5.522404,-17.047004 12.613828,-22.254016s15.377372,-10.323124 17.796963,-19.159703c3.477376,-12.699735 -6.880696,-24.330287 -14.942717,-34.359996a116.03677,124.281249 0 0 1 -15.301964,-24.357619c-1.677177,-3.503763 -3.218628,-7.166524 -3.660018,-11.075444c-0.635653,-5.629295 1.052875,-11.230993 2.75404,-16.600597q8.500596,-26.831641 18.177269,-53.213643" fill="none" stroke-miterlimit="10" id="svg_32"/>
   <path stroke="#3f3d56" d="m1007.99494,307.900804a19.273817,20.643233 0 1 0 2.566691,-39.590552l0.482427,10.625056l-4.693456,-9.105774a19.201112,20.565362 0 0 0 -9.893798,11.627247a18.899637,20.242467 0 0 0 -1.108621,5.584087a19.270146,20.639301 0 0 0 12.646757,20.859936z" fill="none" stroke-miterlimit="10" id="svg_33"/>
   <path stroke="null" d="m1028.068809,249.178823a19.251272,20.619085 0 0 1 13.872431,-13.090272l1.586926,10.100946l2.942109,-10.608676a19.271475,20.640724 0 1 1 -18.401512,13.598026l0.000045,0l0,-0.000024z" fill="#57b894" id="svg_34"/>
   <path stroke="#3f3d56" d="m1029.127135,245.531476a19.251294,20.61911 0 0 1 13.872431,-13.090272l1.586926,10.100946l2.942109,-10.608676a19.271475,20.640724 0 1 1 -18.401489,13.598002l0.000023,0z" fill="none" stroke-miterlimit="10" id="svg_35"/>
   <path stroke="null" d="m1042.509346,358.300161a19.271475,20.640724 0 0 0 17.057252,-36.72153l-2.260734,8.152384l-1.603075,-10.219996a0.33508,0.358887 0 0 0 -0.049078,-0.019926a19.272534,20.641858 0 1 0 -13.144432,38.809067l0.000068,0z" fill="#57b894" id="svg_36"/>
   <path stroke="#3f3d56" d="m1043.426383,354.605773a19.271475,20.640724 0 0 0 17.057252,-36.72153l-2.260734,8.152409l-1.603053,-10.22002a0.335327,0.359152 0 0 0 -0.049078,-0.019926a19.272534,20.641858 0 1 0 -13.144432,38.809067l0.000045,0z" fill="none" stroke-miterlimit="10" id="svg_37"/>
   <path stroke="null" d="m1022.444284,392.581659a19.263434,20.632112 0 1 0 3.714074,-16.164828l8.58713,13.843026l-11.733233,-7.347428a19.092167,20.448676 0 0 0 -0.567971,9.669205l0,0.000024z" fill="#57b894" id="svg_38"/>
   <path stroke="#3f3d56" d="m1023.238051,389.846137a19.263434,20.632112 0 1 0 3.714074,-16.164804l8.587108,13.843026l-11.733211,-7.347428a19.092077,20.44858 0 0 0 -0.567971,9.669205z" fill="none" stroke-miterlimit="10" id="svg_39"/>
   <path stroke="null" d="m38.071416,360.92305a12.663244,13.562975 0 1 0 1.686366,-26.011704l0.316971,6.980869l-3.083691,-5.982658a12.615495,13.511833 0 0 0 -6.500412,7.639347a12.417492,13.299762 0 0 0 -0.728382,3.668841a12.660834,13.560394 0 0 0 8.309147,13.705304z" fill="#57b894" id="svg_40"/>
   <path stroke="#3f3d56" d="m53.329572,441.889253c-1.088552,-5.936919 3.628327,-11.200163 8.287525,-14.621302s10.103198,-6.782476 11.692917,-12.588284c2.284721,-8.34395 -4.520747,-15.98542 -9.817625,-22.575125a76.238032,81.654788 0 0 1 -10.053669,-16.003417a20.567625,22.028966 0 0 1 -2.404703,-7.276745c-0.41765,-3.698561 0.691781,-7.378957 1.809456,-10.906892q5.585041,-17.62889 11.94279,-34.962363" fill="none" stroke-miterlimit="10" id="svg_41"/>
   <path stroke="#3f3d56" d="m38.592921,359.125768a12.663244,13.562975 0 1 0 1.686366,-26.011704l0.316971,6.980869l-3.083691,-5.982706a12.615472,13.511809 0 0 0 -6.500412,7.639347a12.417762,13.300051 0 0 0 -0.728382,3.668841a12.660811,13.560369 0 0 0 8.309147,13.705328l0,0.000024z" fill="none" stroke-miterlimit="10" id="svg_42"/>
   <path stroke="null" d="m51.781814,320.544355a12.648446,13.547126 0 0 1 9.114446,-8.600553l1.042627,6.636504l1.933042,-6.970086a12.66169,13.56131 0 1 1 -12.090115,8.934135z" fill="#57b894" id="svg_43"/>
   <path stroke="#3f3d56" d="m52.477155,318.147963a12.648446,13.547126 0 0 1 9.114446,-8.600529l1.042627,6.636504l1.933042,-6.970086a12.66169,13.56131 0 1 1 -12.090115,8.934135l0,-0.000024z" fill="none" stroke-miterlimit="10" id="svg_44"/>
   <path stroke="null" d="m61.269495,392.239055a12.661712,13.561334 0 0 0 11.206953,-24.126732l-1.485346,5.356288l-1.053236,-6.714737a0.220413,0.236074 0 0 0 -0.032231,-0.013075a12.662388,13.562058 0 1 0 -8.636141,25.498256z" fill="#57b894" id="svg_45"/>
   <path stroke="#3f3d56" d="m61.871994,389.811761a12.661712,13.561334 0 0 0 11.206953,-24.126708l-1.485346,5.356288l-1.053236,-6.714737a0.220413,0.236074 0 0 0 -0.032231,-0.013099a12.662388,13.562058 0 1 0 -8.636141,25.498256z" fill="none" stroke-miterlimit="10" id="svg_46"/>
   <path stroke="null" d="m48.086413,414.762628a12.656419,13.555665 0 1 0 2.4402,-10.620593l5.64189,9.095136l-7.708946,-4.827426a12.543915,13.435168 0 0 0 -0.373144,6.352883z" fill="#57b894" id="svg_47"/>
   <path stroke="#3f3d56" d="m48.607918,412.965346a12.656419,13.555665 0 1 0 2.440177,-10.620593l5.64189,9.095136l-7.708946,-4.827402a12.543915,13.435168 0 0 0 -0.373121,6.352859z" fill="none" stroke-miterlimit="10" id="svg_48"/>
   <ellipse stroke="null" cx="17887.347969" cy="12324.614767" rx="17" ry="22" fill="#2f2e41" id="svg_49" transform="matrix(0.9260683046728966,0,0,0.9918659879373787,-16089.787274880196,-12013.347085963753) "/>
   <ellipse stroke="null" cx="17979.847969" cy="12325.114767" rx="17" ry="22" fill="#2f2e41" id="svg_50" transform="matrix(0.9260683046728966,0,0,0.9918659879373787,-16089.787274880196,-12013.347085963753) "/>
   <path stroke="null" d="m548.741166,275.98634c0,9.859131 -12.853836,17.853578 -28.708118,17.853578s-28.708118,-7.994447 -28.708118,-17.853578c0,-8.539979 9.640366,-15.681415 22.521974,-17.427096a46.399288,49.695984 0 0 1 6.186144,-0.426506a46.950457,50.286314 0 0 1 10.307147,1.190235c10.760901,2.568948 18.400971,9.065656 18.400971,16.663367z" fill="#2f2e41" id="svg_51"/>
   <ellipse stroke="#3f3d56" cx="17891.347969" cy="12319.614767" rx="17" ry="22" fill="none" stroke-miterlimit="10" id="svg_52" transform="matrix(0.9260683046728966,0,0,0.9918659879373787,-16089.787274880196,-12013.347085963753) "/>
   <ellipse stroke="#3f3d56" cx="17983.847969" cy="12320.114767" rx="17" ry="22" fill="none" stroke-miterlimit="10" id="svg_53" transform="matrix(0.9260683046728966,0,0,0.9918659879373787,-16089.787274880196,-12013.347085963753) "/>
   <ellipse stroke="#3f3d56" cx="17939.847969" cy="12385.114767" rx="31" ry="18" fill="none" stroke-miterlimit="10" id="svg_54" transform="matrix(0.9260683046728966,0,0,0.9918659879373787,-16089.787274880196,-12013.347085963753) "/>
   <path stroke="null" d="m530.68282,260.810774a4.571604,4.896419 0 0 1 -1.222408,3.364425a4.017958,4.303437 0 0 1 -2.94488,1.39654l-9.26069,0a4.319478,4.62638 0 0 1 -4.167311,-4.760941a4.541986,4.864697 0 0 1 0.759374,-2.719046a43.543736,46.637544 0 0 1 6.186144,-0.454923a44.140627,47.276844 0 0 1 10.307147,1.269578a4.691992,5.02536 0 0 1 0.342625,1.904391l0,-0.000024z" fill="#fff" id="svg_55"/>
   <circle stroke="null" cx="17891.347969" cy="12313.614767" r="5" fill="#fff" id="svg_56" transform="matrix(0.9260683046728966,0,0,0.9918659879373787,-16089.787274880196,-12013.347085963753) "/>
   <circle stroke="null" cx="17984.347969" cy="12313.614767" r="5" fill="#fff" id="svg_57" transform="matrix(0.9260683046728966,0,0,0.9918659879373787,-16089.787274880196,-12013.347085963753) "/>
   <circle stroke="null" cx="17989.347969" cy="12360.614767" r="5" fill="#3051d3" opacity="0.3" id="svg_58" transform="matrix(0.9260683046728966,0,0,0.9918659879373787,-16089.787274880196,-12013.347085963753) "/>
   <circle stroke="null" cx="17867.347969" cy="12360.614767" r="5" fill="#3051d3" opacity="0.3" id="svg_59" transform="matrix(0.9260683046728966,0,0,0.9918659879373787,-16089.787274880196,-12013.347085963753) "/>
   <path stroke="null" d="m829.258504,60.150573c-79.590066,0 -136.734917,54.690877 -136.734917,182.302898c0,144.626965 57.144829,182.910572 136.734917,182.910572s140.139138,-41.92965 140.139138,-182.910572c-0.000045,-150.703705 -60.549049,-182.302898 -140.139138,-182.302898zm0.523194,317.207055c-55.125951,0 -83.925806,-34.638817 -83.925806,-134.810751c0,-88.387015 29.978771,-134.99754 85.104744,-134.99754s85.104767,30.616661 85.104767,134.99754c-0.00009,97.646577 -31.157777,134.810751 -86.283705,134.810751z" fill="#2f2e41" id="svg_93"/>
   <path stroke="#3f3d56" d="m847.414174,49.212417c-79.590066,0 -136.734917,54.690852 -136.734917,182.302898c0,144.626941 57.144829,182.910572 136.734917,182.910572s140.139138,-41.929674 140.139138,-182.910572c-0.000045,-150.703729 -60.549049,-182.302898 -140.139138,-182.302898zm0.523239,317.207031c-55.125951,0 -83.925806,-34.638817 -83.925806,-134.810751c0,-88.387015 29.978771,-134.99754 85.104767,-134.99754s85.104744,30.616661 85.104744,134.99754c-0.000135,97.646577 -31.157822,134.810751 -86.28375,134.810751l0.000045,0z" fill="none" stroke-miterlimit="10" id="svg_94"/>
   <path stroke="null" d="m913.215752,27.16724s3.011842,9.295386 5.768494,6.820399l-2.197173,-12.150175l-3.571321,5.329776z" fill="#fbbebe" id="svg_113"/>
   <ellipse stroke="null" cx="18230.280431" cy="12324.614767" rx="17" ry="22" fill="#2f2e41" id="svg_114" transform="matrix(0.9260683046728966,0,0,0.9918659879373787,-16089.787274880196,-12013.347085963753) "/>
   <ellipse stroke="null" cx="18322.780431" cy="12325.114767" rx="17" ry="22" fill="#2f2e41" id="svg_115" transform="matrix(0.9260683046728966,0,0,0.9918659879373787,-16089.787274880196,-12013.347085963753) "/>
   <path stroke="null" d="m866.32005,275.98634c0,9.859131 -12.853836,17.853578 -28.708118,17.853578s-28.708118,-7.994447 -28.708118,-17.853578c0,-8.539979 9.640366,-15.681415 22.521974,-17.427096a46.399288,49.695984 0 0 1 6.186144,-0.426506a46.950457,50.286314 0 0 1 10.307147,1.190235c10.760901,2.568948 18.400971,9.065656 18.400971,16.663367z" fill="#2f2e41" id="svg_116"/>
   <ellipse stroke="#3f3d56" cx="18234.280431" cy="12319.614767" rx="17" ry="22" fill="none" stroke-miterlimit="10" id="svg_117" transform="matrix(0.9260683046728966,0,0,0.9918659879373787,-16089.787274880196,-12013.347085963753) "/>
   <ellipse stroke="#3f3d56" cx="18326.780431" cy="12320.114767" rx="17" ry="22" fill="none" stroke-miterlimit="10" id="svg_118" transform="matrix(0.9260683046728966,0,0,0.9918659879373787,-16089.787274880196,-12013.347085963753) "/>
   <ellipse stroke="#3f3d56" cx="18282.780431" cy="12385.114767" rx="31" ry="18" fill="none" stroke-miterlimit="10" id="svg_119" transform="matrix(0.9260683046728966,0,0,0.9918659879373787,-16089.787274880196,-12013.347085963753) "/>
   <path stroke="null" d="m848.261726,260.810774a4.571604,4.896419 0 0 1 -1.222431,3.364425a4.017958,4.303437 0 0 1 -2.94488,1.39654l-9.26069,0a4.319478,4.62638 0 0 1 -4.167311,-4.760965a4.541986,4.864697 0 0 1 0.759374,-2.719021a43.543736,46.637544 0 0 1 6.186144,-0.454947a44.140627,47.276844 0 0 1 10.307147,1.269602a4.691992,5.02536 0 0 1 0.342647,1.904367z" fill="#fff" id="svg_120"/>
   <circle stroke="null" cx="18234.280431" cy="12313.614767" r="5" fill="#fff" id="svg_121" transform="matrix(0.9260683046728966,0,0,0.9918659879373787,-16089.787274880196,-12013.347085963753) "/>
   <circle stroke="null" cx="18327.280431" cy="12313.614767" r="5" fill="#fff" id="svg_122" transform="matrix(0.9260683046728966,0,0,0.9918659879373787,-16089.787274880196,-12013.347085963753) "/>
   <circle stroke="null" cx="18332.280431" cy="12360.614767" r="5" fill="#3051d3" opacity="0.3" id="svg_123" transform="matrix(0.9260683046728966,0,0,0.9918659879373787,-16089.787274880196,-12013.347085963753) "/>
   <circle stroke="null" cx="18210.280431" cy="12360.614767" r="5" fill="#3051d3" opacity="0.3" id="svg_124" transform="matrix(0.9260683046728966,0,0,0.9918659879373787,-16089.787274880196,-12013.347085963753) "/>
  </g>
 </g>
 <g>
  <title>background</title>
  <rect fill="none" id="canvas_background" height="502" width="1102" y="-1" x="-1"/>
 </g>
</svg>